<mxfile host="app.diagrams.net" agent="Mozilla/5.0 (Windows NT 10.0; Win64; x64) AppleWebKit/537.36 (KHTML, like Gecko) Chrome/131.0.0.0 Safari/537.36" version="25.0.1">
  <diagram name="Página-1" id="4fPj8FKTWWKvgSlPfXeu">
    <mxGraphModel dx="926" dy="1626" grid="1" gridSize="10" guides="1" tooltips="1" connect="1" arrows="1" fold="1" page="1" pageScale="1" pageWidth="827" pageHeight="1169" math="0" shadow="0">
      <root>
        <mxCell id="0" />
        <mxCell id="1" parent="0" />
        <mxCell id="tzBEl5uezkZAkphJzdvv-1" value="&lt;span style=&quot;font-size: 13px;&quot;&gt;Confirmar as categorias escolhidas&lt;/span&gt;" style="swimlane;whiteSpace=wrap;html=1;" parent="1" vertex="1">
          <mxGeometry x="681" y="332.5" width="548" height="110" as="geometry" />
        </mxCell>
        <mxCell id="tzBEl5uezkZAkphJzdvv-2" value="&lt;div&gt;&lt;font style=&quot;font-size: 13px;&quot;&gt;d: mostrar um botão para confirmar a escolha de categorias e aplicar&lt;/font&gt;&lt;span style=&quot;font-size: 13px; background-color: initial;&quot;&gt;&amp;nbsp;os filtros ao mapa&lt;/span&gt;&lt;/div&gt;&lt;div&gt;&lt;span style=&quot;font-size: 13px; background-color: initial;&quot;&gt;d+u: escolher se aplica os filtros ou não&lt;/span&gt;&lt;/div&gt;" style="text;html=1;align=left;verticalAlign=middle;resizable=0;points=[];autosize=1;strokeColor=none;fillColor=none;rotation=0;" parent="tzBEl5uezkZAkphJzdvv-1" vertex="1">
          <mxGeometry x="18" y="40" width="530" height="40" as="geometry" />
        </mxCell>
        <mxCell id="tzBEl5uezkZAkphJzdvv-5" value="" style="ellipse;whiteSpace=wrap;html=1;aspect=fixed;fillColor=#000000;" parent="1" vertex="1">
          <mxGeometry x="945" y="-140" width="20" height="20" as="geometry" />
        </mxCell>
        <mxCell id="tzBEl5uezkZAkphJzdvv-84" value="" style="whiteSpace=wrap;html=1;fontStyle=1;startSize=23;fillColor=#000000;direction=south;" parent="1" vertex="1">
          <mxGeometry x="936.5" y="510" width="37.5" height="38" as="geometry" />
        </mxCell>
        <mxCell id="tzBEl5uezkZAkphJzdvv-92" value="" style="endArrow=classic;html=1;rounded=0;exitX=0.5;exitY=1;exitDx=0;exitDy=0;entryX=0;entryY=0.5;entryDx=0;entryDy=0;" parent="1" source="tzBEl5uezkZAkphJzdvv-1" target="tzBEl5uezkZAkphJzdvv-84" edge="1">
          <mxGeometry relative="1" as="geometry">
            <mxPoint x="423.9949999999999" y="600" as="sourcePoint" />
            <mxPoint x="330" y="540" as="targetPoint" />
          </mxGeometry>
        </mxCell>
        <mxCell id="tzBEl5uezkZAkphJzdvv-93" value="&lt;div&gt;&lt;br&gt;&lt;/div&gt;&lt;div&gt;&lt;div&gt;d: apresentar os filtros escolhidos para o usuário&lt;/div&gt;u: confirmar a escolha&lt;/div&gt;" style="edgeLabel;resizable=0;html=1;;align=center;verticalAlign=middle;fontSize=12;" parent="tzBEl5uezkZAkphJzdvv-92" connectable="0" vertex="1">
          <mxGeometry relative="1" as="geometry" />
        </mxCell>
        <mxCell id="tzBEl5uezkZAkphJzdvv-101" value="" style="ellipse;html=1;shape=endState;fillColor=#000000;strokeColor=#000000;" parent="1" vertex="1">
          <mxGeometry x="940" y="770" width="30" height="30" as="geometry" />
        </mxCell>
        <mxCell id="tzBEl5uezkZAkphJzdvv-104" value="" style="rounded=1;whiteSpace=wrap;html=1;fillColor=#bac8d3;strokeColor=#23445d;" parent="1" vertex="1">
          <mxGeometry x="370" width="100" height="30" as="geometry" />
        </mxCell>
        <mxCell id="tzBEl5uezkZAkphJzdvv-108" value="" style="endArrow=classic;html=1;rounded=0;exitX=0.5;exitY=1;exitDx=0;exitDy=0;entryX=0.5;entryY=0;entryDx=0;entryDy=0;" parent="1" source="tzBEl5uezkZAkphJzdvv-104" target="tzBEl5uezkZAkphJzdvv-110" edge="1">
          <mxGeometry relative="1" as="geometry">
            <mxPoint x="70" y="230" as="sourcePoint" />
            <mxPoint x="112" y="240" as="targetPoint" />
          </mxGeometry>
        </mxCell>
        <mxCell id="tzBEl5uezkZAkphJzdvv-109" value="u: sair" style="edgeLabel;resizable=0;html=1;;align=center;verticalAlign=middle;fontSize=12;" parent="tzBEl5uezkZAkphJzdvv-108" connectable="0" vertex="1">
          <mxGeometry relative="1" as="geometry" />
        </mxCell>
        <mxCell id="tzBEl5uezkZAkphJzdvv-110" value="" style="ellipse;html=1;shape=endState;fillColor=#000000;strokeColor=#000000;" parent="1" vertex="1">
          <mxGeometry x="405" y="90" width="30" height="30" as="geometry" />
        </mxCell>
        <mxCell id="tzBEl5uezkZAkphJzdvv-112" value="" style="endArrow=classic;html=1;rounded=0;exitX=0.5;exitY=1;exitDx=0;exitDy=0;" parent="1" source="tzBEl5uezkZAkphJzdvv-5" target="tzBEl5uezkZAkphJzdvv-114" edge="1">
          <mxGeometry relative="1" as="geometry">
            <mxPoint x="410" y="70" as="sourcePoint" />
            <mxPoint x="424" y="-10" as="targetPoint" />
          </mxGeometry>
        </mxCell>
        <mxCell id="tzBEl5uezkZAkphJzdvv-114" value="&lt;font style=&quot;font-size: 13px;&quot;&gt;Escolher categorias de interesse&lt;/font&gt;" style="swimlane;whiteSpace=wrap;html=1;startSize=30;" parent="1" vertex="1">
          <mxGeometry x="605" width="700" height="170" as="geometry" />
        </mxCell>
        <mxCell id="tzBEl5uezkZAkphJzdvv-119" value="d: exibir uma caixa contendo as categorias de interesse, tanto as principais como as específicas&lt;div&gt;d+u: clicar na caixa para selecionar as categorias, que funcionam como filtros&amp;nbsp;&lt;/div&gt;&lt;div&gt;&lt;span style=&quot;background-color: initial;&quot;&gt;&lt;span style=&quot;white-space: pre;&quot;&gt;&#x9;&lt;/span&gt;{OR {d: categorias principais:&amp;nbsp;&lt;/span&gt;&lt;span style=&quot;background-color: initial;&quot;&gt;Direitos Humanos e&amp;nbsp;&lt;/span&gt;&lt;span style=&quot;background-color: initial;&quot;&gt;Igualdade de&amp;nbsp;&lt;/span&gt;&lt;span style=&quot;background-color: initial;&quot;&gt;Gênero OR&amp;nbsp;&lt;/span&gt;&lt;span style=&quot;background-color: initial;&quot;&gt;Direitos Culturais e&amp;nbsp;&lt;/span&gt;&lt;span style=&quot;background-color: initial;&quot;&gt;Territoriais&amp;nbsp;&lt;/span&gt;&lt;/div&gt;&lt;div&gt;&lt;span style=&quot;background-color: initial;&quot;&gt;&lt;span style=&quot;white-space: pre;&quot;&gt;&#x9;&lt;/span&gt;&lt;span style=&quot;white-space: pre;&quot;&gt;&#x9;&lt;span style=&quot;white-space: pre;&quot;&gt;&#x9;&lt;/span&gt;&lt;/span&gt;OR&amp;nbsp;&lt;/span&gt;&lt;span style=&quot;background-color: initial;&quot;&gt;Combate ao&amp;nbsp;&lt;/span&gt;&lt;span style=&quot;background-color: initial;&quot;&gt;Racismo e I&lt;/span&gt;&lt;span style=&quot;background-color: initial;&quot;&gt;nclusão Social&amp;nbsp;&lt;/span&gt;&lt;span style=&quot;background-color: initial;&quot;&gt;OR Acessibilidade e&amp;nbsp;&lt;/span&gt;&lt;span style=&quot;background-color: initial;&quot;&gt;Inclusão para&amp;nbsp;&lt;/span&gt;&lt;span style=&quot;background-color: initial;&quot;&gt;Pessoas com&amp;nbsp;&lt;/span&gt;&lt;span style=&quot;background-color: initial;&quot;&gt;Deficiência&amp;nbsp;&lt;/span&gt;&lt;/div&gt;&lt;div&gt;&lt;span style=&quot;background-color: initial;&quot;&gt;&lt;span style=&quot;white-space: pre;&quot;&gt;&#x9;&lt;/span&gt;&lt;span style=&quot;white-space: pre;&quot;&gt;&#x9;&lt;/span&gt;&lt;span style=&quot;white-space: pre;&quot;&gt;&#x9;&lt;/span&gt;OR&amp;nbsp;&lt;/span&gt;&lt;span style=&quot;background-color: initial;&quot;&gt;Direitos da População&amp;nbsp;&lt;/span&gt;&lt;span style=&quot;background-color: initial;&quot;&gt;LGBTI+ OR&amp;nbsp;&lt;/span&gt;&lt;span style=&quot;background-color: initial;&quot;&gt;Apoio a Líderes&amp;nbsp;&lt;/span&gt;&lt;span style=&quot;background-color: initial;&quot;&gt;Comunitários e&amp;nbsp;&lt;/span&gt;&lt;span style=&quot;background-color: initial;&quot;&gt;Ativistas}&lt;/span&gt;&lt;/div&gt;&lt;div&gt;&lt;span style=&quot;white-space: pre;&quot;&gt;&#x9;&lt;/span&gt;&lt;span style=&quot;white-space: pre;&quot;&gt;&#x9;&lt;/span&gt;{d: categorias específicas: apoio jurídico OR apoio psicológico OR apoio comunitário} }&lt;/div&gt;" style="text;html=1;align=left;verticalAlign=middle;resizable=0;points=[];autosize=1;strokeColor=none;fillColor=none;" parent="tzBEl5uezkZAkphJzdvv-114" vertex="1">
          <mxGeometry x="15" y="50" width="660" height="100" as="geometry" />
        </mxCell>
        <mxCell id="tzBEl5uezkZAkphJzdvv-117" value="&lt;div style=&quot;&quot;&gt;precond: o usuário está no sistema (não necessariamente logado)&lt;/div&gt;&lt;div style=&quot;&quot;&gt;&lt;span style=&quot;background-color: initial;&quot;&gt;u: estar na tela inicial do aplicativo&lt;/span&gt;&lt;/div&gt;" style="text;html=1;align=center;verticalAlign=middle;whiteSpace=wrap;rounded=0;fillColor=#f5f5f5;fontColor=#333333;strokeColor=none;" parent="1" vertex="1">
          <mxGeometry x="750" y="-90" width="403" height="40" as="geometry" />
        </mxCell>
        <mxCell id="tzBEl5uezkZAkphJzdvv-124" value="" style="whiteSpace=wrap;html=1;fontStyle=1;startSize=23;fillColor=#000000;" parent="1" vertex="1">
          <mxGeometry x="936" y="240" width="38" height="37.5" as="geometry" />
        </mxCell>
        <mxCell id="tzBEl5uezkZAkphJzdvv-125" value="" style="edgeStyle=orthogonalEdgeStyle;rounded=0;orthogonalLoop=1;jettySize=auto;html=1;entryX=0.5;entryY=0;entryDx=0;entryDy=0;exitX=0.5;exitY=1;exitDx=0;exitDy=0;" parent="1" source="tzBEl5uezkZAkphJzdvv-124" target="tzBEl5uezkZAkphJzdvv-1" edge="1">
          <mxGeometry relative="1" as="geometry">
            <mxPoint x="461" y="168" as="sourcePoint" />
            <mxPoint x="460" y="220" as="targetPoint" />
          </mxGeometry>
        </mxCell>
        <mxCell id="VcEPl0-1U5pJkgtZ5y57-3" value="" style="endArrow=classic;html=1;rounded=0;exitX=0.5;exitY=1;exitDx=0;exitDy=0;entryX=0.5;entryY=0;entryDx=0;entryDy=0;" edge="1" parent="1" source="tzBEl5uezkZAkphJzdvv-114" target="tzBEl5uezkZAkphJzdvv-124">
          <mxGeometry relative="1" as="geometry">
            <mxPoint x="950" y="200" as="sourcePoint" />
            <mxPoint x="1050" y="200" as="targetPoint" />
          </mxGeometry>
        </mxCell>
        <mxCell id="VcEPl0-1U5pJkgtZ5y57-4" value="&lt;div&gt;precond: o usuário está conectado à internet ou tem locais baixados no dispositivo&lt;/div&gt;u: seleciona os filtros de interesse" style="edgeLabel;resizable=0;html=1;;align=center;verticalAlign=middle;fontSize=12;" connectable="0" vertex="1" parent="VcEPl0-1U5pJkgtZ5y57-3">
          <mxGeometry relative="1" as="geometry" />
        </mxCell>
        <mxCell id="VcEPl0-1U5pJkgtZ5y57-8" value="" style="endArrow=classic;html=1;rounded=0;exitX=1;exitY=0.5;exitDx=0;exitDy=0;entryX=0.5;entryY=0;entryDx=0;entryDy=0;" edge="1" parent="1" source="tzBEl5uezkZAkphJzdvv-84" target="VcEPl0-1U5pJkgtZ5y57-11">
          <mxGeometry relative="1" as="geometry">
            <mxPoint x="930" y="640" as="sourcePoint" />
            <mxPoint x="952" y="600" as="targetPoint" />
          </mxGeometry>
        </mxCell>
        <mxCell id="VcEPl0-1U5pJkgtZ5y57-9" value="d: os filtros são aplicados" style="edgeLabel;resizable=0;html=1;;align=center;verticalAlign=middle;fontSize=12;" connectable="0" vertex="1" parent="VcEPl0-1U5pJkgtZ5y57-8">
          <mxGeometry relative="1" as="geometry">
            <mxPoint x="-1" y="-9" as="offset" />
          </mxGeometry>
        </mxCell>
        <mxCell id="VcEPl0-1U5pJkgtZ5y57-11" value="Mostrar mapa atualizado" style="swimlane;whiteSpace=wrap;html=1;" vertex="1" parent="1">
          <mxGeometry x="775.38" y="610" width="359.25" height="100" as="geometry" />
        </mxCell>
        <mxCell id="VcEPl0-1U5pJkgtZ5y57-12" value="d: exibir o mapa do sistema atualizado, com os locais&amp;nbsp;&lt;div&gt;relacionados à&lt;span style=&quot;background-color: initial;&quot;&gt;s categorias escolhidas em destaque&lt;/span&gt;&lt;/div&gt;" style="text;html=1;align=center;verticalAlign=middle;resizable=0;points=[];autosize=1;strokeColor=none;fillColor=none;" vertex="1" parent="VcEPl0-1U5pJkgtZ5y57-11">
          <mxGeometry x="28.13" y="30" width="310" height="40" as="geometry" />
        </mxCell>
        <mxCell id="VcEPl0-1U5pJkgtZ5y57-13" value="" style="endArrow=classic;html=1;rounded=0;exitX=0.5;exitY=1;exitDx=0;exitDy=0;entryX=0.5;entryY=0;entryDx=0;entryDy=0;" edge="1" parent="1" source="VcEPl0-1U5pJkgtZ5y57-11" target="tzBEl5uezkZAkphJzdvv-101">
          <mxGeometry width="50" height="50" relative="1" as="geometry">
            <mxPoint x="1090" y="670" as="sourcePoint" />
            <mxPoint x="1140" y="620" as="targetPoint" />
          </mxGeometry>
        </mxCell>
        <mxCell id="VcEPl0-1U5pJkgtZ5y57-14" value="" style="endArrow=classic;html=1;rounded=0;entryX=1;entryY=0.5;entryDx=0;entryDy=0;dashed=1;dashPattern=8 8;exitX=0.5;exitY=0;exitDx=0;exitDy=0;" edge="1" parent="1" source="tzBEl5uezkZAkphJzdvv-84" target="tzBEl5uezkZAkphJzdvv-114">
          <mxGeometry relative="1" as="geometry">
            <mxPoint x="1131.12" y="670" as="sourcePoint" />
            <mxPoint x="1330" y="80" as="targetPoint" />
            <Array as="points">
              <mxPoint x="1370" y="529" />
              <mxPoint x="1370" y="85" />
            </Array>
          </mxGeometry>
        </mxCell>
        <mxCell id="VcEPl0-1U5pJkgtZ5y57-15" value="u: editar as categorias de interesse" style="edgeLabel;resizable=0;html=1;;align=center;verticalAlign=middle;fontSize=12;" connectable="0" vertex="1" parent="VcEPl0-1U5pJkgtZ5y57-14">
          <mxGeometry relative="1" as="geometry">
            <mxPoint x="-10" y="-215" as="offset" />
          </mxGeometry>
        </mxCell>
        <mxCell id="VcEPl0-1U5pJkgtZ5y57-22" value="" style="endArrow=classic;html=1;rounded=0;entryX=0;entryY=0.5;entryDx=0;entryDy=0;dashed=1;dashPattern=8 8;exitX=0.5;exitY=1;exitDx=0;exitDy=0;" edge="1" parent="1" source="tzBEl5uezkZAkphJzdvv-84" target="tzBEl5uezkZAkphJzdvv-114">
          <mxGeometry relative="1" as="geometry">
            <mxPoint x="895.9999999999995" y="484" as="sourcePoint" />
            <mxPoint x="564.9999999999995" y="40" as="targetPoint" />
            <Array as="points">
              <mxPoint x="500" y="529" />
              <mxPoint x="500" y="85" />
            </Array>
          </mxGeometry>
        </mxCell>
        <mxCell id="VcEPl0-1U5pJkgtZ5y57-23" value="u: cancelar" style="edgeLabel;resizable=0;html=1;;align=center;verticalAlign=middle;fontSize=12;" connectable="0" vertex="1" parent="VcEPl0-1U5pJkgtZ5y57-22">
          <mxGeometry relative="1" as="geometry">
            <mxPoint x="-10" y="-273" as="offset" />
          </mxGeometry>
        </mxCell>
        <mxCell id="VcEPl0-1U5pJkgtZ5y57-24" value="" style="endArrow=none;html=1;rounded=0;entryX=0;entryY=0.5;entryDx=0;entryDy=0;dashed=1;dashPattern=8 8;" edge="1" parent="1" target="tzBEl5uezkZAkphJzdvv-124">
          <mxGeometry width="50" height="50" relative="1" as="geometry">
            <mxPoint x="500" y="259" as="sourcePoint" />
            <mxPoint x="560" y="210" as="targetPoint" />
          </mxGeometry>
        </mxCell>
      </root>
    </mxGraphModel>
  </diagram>
</mxfile>
